<?xml version="1.0" encoding="utf-8"?>
<!-- Generator: Adobe Illustrator 22.0.0, SVG Export Plug-In . SVG Version: 6.00 Build 0)  -->
<svg version="1.1" id="Layer_1" xmlns="http://www.w3.org/2000/svg" xmlns:xlink="http://www.w3.org/1999/xlink" x="0px" y="0px"
	 viewBox="0 0 393.6 209.7" style="enable-background:new 0 0 393.6 209.7;" xml:space="preserve">
<style type="text/css">
	.st0{clip-path:url(#SVGID_2_);fill:#F9E832;}
	.st1{clip-path:url(#SVGID_2_);fill:none;stroke:#FFFFFF;stroke-width:1.2493;}
	.st2{clip-path:url(#SVGID_2_);}
	.st3{clip-path:url(#SVGID_4_);fill:none;stroke:#79499D;stroke-width:3.748;stroke-miterlimit:10;}
	.st4{clip-path:url(#SVGID_4_);fill:none;stroke:#293688;stroke-width:3.748;stroke-miterlimit:10;}
	.st5{clip-path:url(#SVGID_4_);fill:none;stroke:#00A79D;stroke-width:3.748;stroke-miterlimit:10;}
	.st6{clip-path:url(#SVGID_4_);fill:none;stroke:#007B4E;stroke-width:3.748;stroke-miterlimit:10;}
	.st7{clip-path:url(#SVGID_4_);fill:none;stroke:#F9E832;stroke-width:3.748;stroke-miterlimit:10;}
	.st8{clip-path:url(#SVGID_4_);fill:none;stroke:#F05223;stroke-width:3.748;stroke-miterlimit:10;}
	.st9{clip-path:url(#SVGID_4_);fill:none;stroke:#DC2129;stroke-width:3.748;stroke-miterlimit:10;}
	.st10{clip-path:url(#SVGID_4_);fill:none;stroke:#E8128C;stroke-width:3.748;stroke-miterlimit:10;}
	.st11{clip-path:url(#SVGID_4_);fill:#EC008C;}
	.st12{clip-path:url(#SVGID_4_);fill:none;stroke:#EC008C;stroke-width:6.2467;}
	.st13{clip-path:url(#SVGID_4_);fill:#007B4E;}
	.st14{clip-path:url(#SVGID_4_);fill:none;stroke:#007B4E;stroke-width:6.2467;}
	.st15{clip-path:url(#SVGID_4_);fill:#293688;}
	.st16{clip-path:url(#SVGID_4_);fill:none;stroke:#293688;stroke-width:6.2467;stroke-miterlimit:10;}
	.st17{clip-path:url(#SVGID_4_);fill:#F05223;}
	.st18{clip-path:url(#SVGID_4_);fill:none;stroke:#F05223;stroke-width:6.2467;}
	.st19{clip-path:url(#SVGID_4_);fill:#79499D;}
	.st20{clip-path:url(#SVGID_4_);fill:none;stroke:#79499D;stroke-width:6.2467;}
	.st21{clip-path:url(#SVGID_4_);fill:#F9E832;}
	.st22{clip-path:url(#SVGID_4_);fill:none;stroke:#F9E832;stroke-width:6.2467;}
	.st23{clip-path:url(#SVGID_4_);fill:#DC2129;}
	.st24{clip-path:url(#SVGID_4_);fill:none;stroke:#DC2129;stroke-width:6.2467;}
	.st25{clip-path:url(#SVGID_4_);fill:#00A79D;}
	.st26{clip-path:url(#SVGID_4_);fill:none;stroke:#00A79D;stroke-width:6.2467;}
	.st27{clip-path:url(#SVGID_4_);fill-rule:evenodd;clip-rule:evenodd;fill:#FFFFFF;}
	.st28{clip-path:url(#SVGID_4_);fill:none;stroke:#EA0B8C;stroke-width:2.4987;stroke-miterlimit:10;}
	.st29{clip-path:url(#SVGID_4_);fill:none;stroke:#DC2129;stroke-width:2.4987;stroke-miterlimit:10;}
	.st30{clip-path:url(#SVGID_4_);fill:none;stroke:#F05223;stroke-width:2.4987;stroke-miterlimit:10;}
	.st31{clip-path:url(#SVGID_4_);fill:none;stroke:#F9E832;stroke-width:2.4987;stroke-miterlimit:10;}
	.st32{clip-path:url(#SVGID_4_);fill:none;stroke:#007B4E;stroke-width:2.4987;stroke-miterlimit:10;}
	.st33{clip-path:url(#SVGID_4_);fill:none;stroke:#00A79D;stroke-width:2.4987;stroke-miterlimit:10;}
	.st34{clip-path:url(#SVGID_4_);fill:none;stroke:#293688;stroke-width:2.4987;stroke-miterlimit:10;}
	.st35{clip-path:url(#SVGID_4_);fill:none;stroke:#79499D;stroke-width:2.4987;stroke-miterlimit:10;}
	.st36{clip-path:url(#SVGID_4_);fill-rule:evenodd;clip-rule:evenodd;fill:#293688;}
	.st37{clip-path:url(#SVGID_4_);fill:none;stroke:#79499D;stroke-width:1.4576;stroke-miterlimit:10;}
	.st38{clip-path:url(#SVGID_4_);fill-rule:evenodd;clip-rule:evenodd;fill:#007B4E;}
	.st39{clip-path:url(#SVGID_4_);fill:none;stroke:#00A79D;stroke-width:1.5409;stroke-miterlimit:10;}
	.st40{clip-path:url(#SVGID_4_);fill-rule:evenodd;clip-rule:evenodd;fill:#F05223;}
	.st41{clip-path:url(#SVGID_4_);fill:none;stroke:#FBDE00;stroke-width:1.4576;stroke-miterlimit:10;}
	.st42{clip-path:url(#SVGID_4_);fill-rule:evenodd;clip-rule:evenodd;fill:#E8128C;}
	.st43{clip-path:url(#SVGID_4_);fill:none;stroke:#DC2129;stroke-width:1.4992;stroke-miterlimit:10;}
	.st44{clip-path:url(#SVGID_4_);fill:none;stroke:#FFFFFF;stroke-width:1.2493;stroke-miterlimit:10;}
</style>
<g>
	<g>
		<g>
			<defs>
				<rect id="SVGID_1_" x="15.1" y="3.9" width="200" height="200"/>
			</defs>
			<clipPath id="SVGID_2_">
				<use xlink:href="#SVGID_1_"  style="overflow:visible;"/>
			</clipPath>
			<polygon class="st0" points="155.5,142.4 159.7,151 169.2,152.4 162.4,159 164,168.5 155.5,164 147,168.5 148.7,159 141.8,152.4 
				151.3,151 			"/>
			<polygon class="st1" points="155.5,142.4 159.7,151 169.2,152.4 162.4,159 164,168.5 155.5,164 147,168.5 148.7,159 141.8,152.4 
				151.3,151 			"/>
			<polygon class="st0" points="114.8,142.4 119,151 128.5,152.4 121.7,159 123.3,168.5 114.8,164 106.3,168.5 108,159 101.1,152.4 
				110.6,151 			"/>
			<polygon class="st1" points="114.8,142.4 119,151 128.5,152.4 121.7,159 123.3,168.5 114.8,164 106.3,168.5 108,159 101.1,152.4 
				110.6,151 			"/>
			<polygon class="st0" points="74.4,142.4 78.7,151 88.2,152.4 81.3,159 82.9,168.5 74.4,164 66,168.5 67.6,159 60.7,152.4 
				70.2,151 			"/>
			<polygon class="st1" points="74.4,142.4 78.7,151 88.2,152.4 81.3,159 82.9,168.5 74.4,164 66,168.5 67.6,159 60.7,152.4 
				70.2,151 			"/>
			<polygon class="st0" points="35.2,142.4 39.4,151 48.9,152.4 42,159 43.6,168.5 35.2,164 26.7,168.5 28.3,159 21.5,152.4 
				30.9,151 			"/>
			<polygon class="st1" points="35.2,142.4 39.4,151 48.9,152.4 42,159 43.6,168.5 35.2,164 26.7,168.5 28.3,159 21.5,152.4 
				30.9,151 			"/>
			<polygon class="st0" points="194.8,142.4 199,151 208.5,152.4 201.7,159 203.3,168.5 194.8,164 186.3,168.5 187.9,159 
				181.1,152.4 190.6,151 			"/>
			<polygon class="st1" points="194.8,142.4 199,151 208.5,152.4 201.7,159 203.3,168.5 194.8,164 186.3,168.5 187.9,159 
				181.1,152.4 190.6,151 			"/>
			<g class="st2">
				<defs>
					<rect id="SVGID_3_" x="15.1" y="3.9" width="200" height="200"/>
				</defs>
				<clipPath id="SVGID_4_">
					<use xlink:href="#SVGID_3_"  style="overflow:visible;"/>
				</clipPath>
				<circle class="st3" cx="120.6" cy="114.5" r="6.7"/>
				<ellipse class="st4" cx="108.9" cy="114.5" rx="6.7" ry="6.4"/>
				<circle class="st5" cx="100.6" cy="106.4" r="6.7"/>
				<circle class="st6" cx="100.6" cy="94.7" r="6.7"/>
				<circle class="st7" cx="109" cy="86.6" r="6.7"/>
				<circle class="st8" cx="120.6" cy="86.4" r="6.7"/>
				<circle class="st9" cx="128.7" cy="94.7" r="6.7"/>
				<circle class="st10" cx="128.7" cy="106.2" r="6.7"/>
				<line class="st11" x1="114.2" y1="100.5" x2="147.7" y2="100.5"/>
				<line class="st12" x1="114.2" y1="100.5" x2="147.7" y2="100.5"/>
				<line class="st13" x1="81.5" y1="100.5" x2="114.7" y2="100.5"/>
				<line class="st14" x1="81.5" y1="100.5" x2="114.7" y2="100.5"/>
				<line class="st15" x1="114.7" y1="100.7" x2="114.7" y2="133.4"/>
				<line class="st16" x1="114.7" y1="100.7" x2="114.7" y2="133.4"/>
				<line class="st17" x1="114.7" y1="67.9" x2="114.7" y2="100.7"/>
				<line class="st18" x1="114.7" y1="67.9" x2="114.7" y2="100.7"/>
				<line class="st19" x1="114.7" y1="100.5" x2="137.9" y2="123.6"/>
				<line class="st20" x1="114.7" y1="100.5" x2="137.9" y2="123.6"/>
				<line class="st21" x1="91.2" y1="77" x2="114.7" y2="100.5"/>
				<line class="st22" x1="91.2" y1="77" x2="114.7" y2="100.5"/>
				<path class="st23" d="M110.2,105.1c9.1-9.2,18.3-18.5,27.4-27.7"/>
				<path class="st24" d="M110.2,105.1c9.1-9.2,18.3-18.5,27.4-27.7"/>
				<line class="st25" x1="91.3" y1="124" x2="114.7" y2="100.7"/>
				<line class="st26" x1="91.3" y1="124" x2="114.7" y2="100.7"/>
				<path class="st27" d="M152.5,100.5c0,2.6-2.1,4.8-4.8,4.8c-2.6,0-4.8-2.1-4.8-4.8c0-2.6,2.1-4.8,4.8-4.8
					C150.3,95.7,152.5,97.9,152.5,100.5"/>
				<circle class="st28" cx="147.7" cy="100.5" r="4.8"/>
				<path class="st27" d="M142.6,77.4c0,2.6-2.1,4.8-4.8,4.8c-2.6,0-4.8-2.1-4.8-4.8c0-2.6,2.1-4.8,4.8-4.8
					C140.5,72.6,142.6,74.8,142.6,77.4"/>
				<circle class="st29" cx="137.9" cy="77.4" r="4.8"/>
				<path class="st27" d="M119.5,67.9c0,2.6-2.1,4.8-4.8,4.8s-4.8-2.1-4.8-4.8c0-2.6,2.1-4.8,4.8-4.8S119.5,65.3,119.5,67.9"/>
				<circle class="st30" cx="114.7" cy="67.9" r="4.8"/>
				<path class="st27" d="M96.1,77c0,2.6-2.1,4.8-4.8,4.8s-4.8-2.1-4.8-4.8c0-2.6,2.1-4.8,4.8-4.8S96.1,74.4,96.1,77"/>
				<circle class="st31" cx="91.3" cy="77" r="4.8"/>
				<path class="st27" d="M86.3,100.5c0,2.6-2.1,4.8-4.8,4.8c-2.6,0-4.8-2.1-4.8-4.8c0-2.6,2.1-4.8,4.8-4.8
					C84.1,95.7,86.3,97.9,86.3,100.5"/>
				<circle class="st32" cx="81.5" cy="100.5" r="4.8"/>
				<path class="st27" d="M95.8,124.3c0,2.6-2.1,4.8-4.8,4.8c-2.6,0-4.8-2.1-4.8-4.8c0-2.6,2.1-4.8,4.8-4.8
					C93.7,119.5,95.8,121.7,95.8,124.3"/>
				<circle class="st33" cx="91.1" cy="124.3" r="4.8"/>
				<path class="st27" d="M119.5,133.4c0,2.6-2.1,4.8-4.8,4.8s-4.8-2.1-4.8-4.8s2.1-4.8,4.8-4.8S119.5,130.8,119.5,133.4"/>
				<circle class="st34" cx="114.7" cy="133.4" r="4.8"/>
				<path class="st27" d="M142.6,123.8c0,2.6-2.1,4.8-4.8,4.8c-2.6,0-4.8-2.1-4.8-4.8c0-2.6,2.1-4.8,4.8-4.8
					C140.5,119,142.6,121.2,142.6,123.8"/>
				<circle class="st35" cx="137.9" cy="123.8" r="4.8"/>
				<path class="st36" d="M125.7,100.6c0,6-4.9,10.9-10.9,10.9c-6,0-10.9-4.9-10.9-10.9s4.9-10.9,10.9-10.9
					C120.8,89.6,125.7,94.5,125.7,100.6"/>
				<circle class="st37" cx="114.8" cy="100.6" r="10.9"/>
				<path class="st38" d="M122.7,100.5c0,4.4-3.6,8-8,8s-8-3.6-8-8c0-4.4,3.6-8,8-8S122.7,96.1,122.7,100.5"/>
				<path class="st39" d="M122.7,100.5c0,4.4-3.6,8-8,8s-8-3.6-8-8c0-4.4,3.6-8,8-8S122.7,96.1,122.7,100.5z"/>
				<path class="st40" d="M119.6,100.6c0,2.7-2.2,4.9-4.9,4.9c-2.7,0-4.9-2.2-4.9-4.9s2.2-4.9,4.9-4.9
					C117.5,95.7,119.6,97.9,119.6,100.6"/>
				<path class="st41" d="M119.6,100.6c0,2.7-2.2,4.9-4.9,4.9c-2.7,0-4.9-2.2-4.9-4.9s2.2-4.9,4.9-4.9
					C117.5,95.7,119.6,97.9,119.6,100.6z"/>
				<path class="st42" d="M116.7,100.5c0,1.1-0.9,2-2,2s-2-0.9-2-2s0.9-2,2-2S116.7,99.4,116.7,100.5"/>
				<circle class="st43" cx="114.7" cy="100.5" r="2"/>
				<path class="st23" d="M21.6,102c2.5,1.7,3.8,2.6,6.4,4.1c-2.4,1.1-3.8,2.7-4.1,4.9c-0.2,1.2,0.2,1.9,1.1,2
					c0.3,0,0.6-0.1,0.9-0.4c0.3-0.3,0.9-1.3,1.7-2.7c0.9-1.6,1.8-2.7,2.5-3.4c0.7-0.7,1.5-1.2,2.5-1.4c0.9-0.2,2-0.1,3.1,0.2
					c2.3,0.6,3.9,1.9,4.9,3.6c0.9,1.8,1.2,4.1,0.8,7.1c-0.4,3.4-1.1,6.3-2.2,9c-3-1-4.5-1.5-7.4-2.6c1.1-0.7,2-1.5,2.7-2.4
					c0.7-0.9,1.1-1.8,1.2-2.7c0-0.4,0-0.8-0.3-1.1c-0.2-0.3-0.5-0.5-0.8-0.6c-0.3,0-0.7,0.1-1,0.3c-0.3,0.3-0.8,1-1.5,2.2
					c-0.6,1.1-1.1,2.1-1.6,2.8c-0.5,0.8-1.2,1.4-2,2s-1.9,0.9-3.2,0.8c-2.5-0.1-4.4-1.1-5.5-3.3c-1.2-2.1-1.6-5.3-1.1-9.2
					C18.9,107.7,20,104.6,21.6,102"/>
				<path class="st44" d="M21.6,102c2.5,1.7,3.8,2.6,6.4,4.1c-2.4,1.1-3.8,2.7-4.1,4.9c-0.2,1.2,0.2,1.9,1.1,2
					c0.3,0,0.6-0.1,0.9-0.4c0.3-0.3,0.9-1.3,1.7-2.7c0.9-1.6,1.8-2.7,2.5-3.4c0.7-0.7,1.5-1.2,2.5-1.4c0.9-0.2,2-0.1,3.1,0.2
					c2.3,0.6,3.9,1.9,4.9,3.6c0.9,1.8,1.2,4.1,0.8,7.1c-0.4,3.4-1.1,6.3-2.2,9c-3-1-4.5-1.5-7.4-2.6c1.1-0.7,2-1.5,2.7-2.4
					c0.7-0.9,1.1-1.8,1.2-2.7c0-0.4,0-0.8-0.3-1.1c-0.2-0.3-0.5-0.5-0.8-0.6c-0.3,0-0.7,0.1-1,0.3c-0.3,0.3-0.8,1-1.5,2.2
					c-0.6,1.1-1.1,2.1-1.6,2.8c-0.5,0.8-1.2,1.4-2,2s-1.9,0.9-3.2,0.8c-2.5-0.1-4.4-1.1-5.5-3.3c-1.2-2.1-1.6-5.3-1.1-9.2
					C18.9,107.7,20,104.6,21.6,102z"/>
				<path class="st17" d="M30.4,102.9c-3.9-1.1-5.8-1.6-9.6-2.7c1.6-6.5,3.7-12.9,6.6-18.9c3.6,1.8,5.4,2.8,9,4.6
					c-0.7,1.6-1.1,2.4-1.8,4l11.5,5.2c-1.1,2.8-1.7,4.2-2.5,7.2c-4-1.3-8-2.7-11.9-4C31.1,100.2,30.9,101.1,30.4,102.9"/>
				<path class="st44" d="M30.4,102.9c-3.9-1.1-5.8-1.6-9.6-2.7c1.6-6.5,3.7-12.9,6.6-18.9c3.6,1.8,5.4,2.8,9,4.6
					c-0.7,1.6-1.1,2.4-1.8,4l11.5,5.2c-1.1,2.8-1.7,4.2-2.5,7.2c-4-1.3-8-2.7-11.9-4C31.1,100.2,30.9,101.1,30.4,102.9z"/>
				<path class="st21" d="M51.3,75.1c1.8,1.4,2.7,2.2,4.5,3.6c-2.9,3.5-5.1,7.3-7.3,11.2c-6.7-3.7-13.3-7.3-20-11
					c2.8-5.1,5.8-10,9.5-14.6c1.8,1.4,2.7,2.2,4.5,3.6c-1.9,2.3-2.8,3.6-4.5,6.1c0.9,0.6,1.4,1,2.3,1.6c1.1-1.7,1.7-2.6,3-4.2
					c1.8,1.4,2.7,2.1,4.5,3.5c-1.2,1.5-1.7,2.3-2.8,3.9c0.9,0.6,1.4,0.9,2.3,1.6C48.9,78.2,49.7,77.1,51.3,75.1"/>
				<path class="st44" d="M51.3,75.1c1.8,1.4,2.7,2.2,4.5,3.6c-2.9,3.5-5.1,7.3-7.3,11.2c-6.7-3.7-13.3-7.3-20-11
					c2.8-5.1,5.8-10,9.5-14.6c1.8,1.4,2.7,2.2,4.5,3.6c-1.9,2.3-2.8,3.6-4.5,6.1c0.9,0.6,1.4,1,2.3,1.6c1.1-1.7,1.7-2.6,3-4.2
					c1.8,1.4,2.7,2.1,4.5,3.5c-1.2,1.5-1.7,2.3-2.8,3.9c0.9,0.6,1.4,0.9,2.3,1.6C48.9,78.2,49.7,77.1,51.3,75.1z"/>
				<path class="st13" d="M60.8,73.1c-2,1.9-2.9,3-4.7,5.1c-4.7-6.4-9-12.9-13-19.8c2.9-3,6.1-6,9.5-8.5c6.5,4.5,12.7,9.4,18.7,14.6
					c-2.3,1.5-3.4,2.3-5.5,4c-1.3-1-1.9-1.4-3.2-2.3c-1.6,1.4-2.4,2.1-3.9,3.5C59.6,71.1,60,71.7,60.8,73.1 M56,64.9
					c0.8-0.8,1.3-1.2,2.1-1.9c-1.9-1.3-2.9-2-4.9-3.2C54.3,61.8,54.8,62.9,56,64.9"/>
				<path class="st44" d="M60.8,73.1c-2,1.9-2.9,3-4.7,5.1c-4.7-6.4-9-12.9-13-19.8c2.9-3,6.1-6,9.5-8.5c6.5,4.5,12.7,9.4,18.7,14.6
					c-2.3,1.5-3.4,2.3-5.5,4c-1.3-1-1.9-1.4-3.2-2.3c-1.6,1.4-2.4,2.1-3.9,3.5C59.6,71.1,60,71.7,60.8,73.1z M56,64.9
					c0.8-0.8,1.3-1.2,2.1-1.9c-1.9-1.3-2.9-2-4.9-3.2C54.3,61.8,54.8,62.9,56,64.9z"/>
				<path class="st15" d="M72.7,63.7c-4.2-6.3-8.5-12.6-12.7-18.9c2.9-1.8,4.4-2.7,7.5-4.2c2.2,1,3.3,1.5,5.4,2.6
					c0.4-2.3,0.6-3.4,1.2-5.7c3.2-1.3,4.8-1.9,8-3c2.5,7.1,5.1,14.2,7.6,21.2c-2.6,0.8-3.9,1.3-6.4,2.4c-1.9-4.1-2.9-6.2-4.8-10.3
					c-0.4,2.1-0.5,3.1-0.7,5.1c-1.8-1.1-2.7-1.6-4.6-2.6c2.2,4,3.3,6,5.5,10C76.1,61.5,75,62.2,72.7,63.7"/>
				<path class="st44" d="M72.7,63.7c-4.2-6.3-8.5-12.6-12.7-18.9c2.9-1.8,4.4-2.7,7.5-4.2c2.2,1,3.3,1.5,5.4,2.6
					c0.4-2.3,0.6-3.4,1.2-5.7c3.2-1.3,4.8-1.9,8-3c2.5,7.1,5.1,14.2,7.6,21.2c-2.6,0.8-3.9,1.3-6.4,2.4c-1.9-4.1-2.9-6.2-4.8-10.3
					c-0.4,2.1-0.5,3.1-0.7,5.1c-1.8-1.1-2.7-1.6-4.6-2.6c2.2,4,3.3,6,5.5,10C76.1,61.5,75,62.2,72.7,63.7z"/>
				<path class="st19" d="M102.8,52.7c-2.7,0.4-4,0.6-6.7,1.3c0-7.8,0.4-15.4,1.2-23.1c4.1-0.7,8.4-1.1,12.6-1.3
					c2.6,7.4,4.7,14.7,6.5,22.3c-2.7-0.1-4.1,0-6.8,0.2c-0.5-1.5-0.7-2.2-1.2-3.7c-2.1,0.2-3.2,0.3-5.2,0.5
					C102.9,50.4,102.9,51.2,102.8,52.7 M103.7,43.4c1.1-0.1,1.7-0.2,2.8-0.3c-0.8-2.2-1.2-3.2-2.1-5.4
					C104.1,40,103.9,41.1,103.7,43.4"/>
				<path class="st44" d="M102.8,52.7c-2.7,0.4-4,0.6-6.7,1.3c0-7.8,0.4-15.4,1.2-23.1c4.1-0.7,8.4-1.1,12.6-1.3
					c2.6,7.4,4.7,14.7,6.5,22.3c-2.7-0.1-4.1,0-6.8,0.2c-0.5-1.5-0.7-2.2-1.2-3.7c-2.1,0.2-3.2,0.3-5.2,0.5
					C102.9,50.4,102.9,51.2,102.8,52.7z M103.7,43.4c1.1-0.1,1.7-0.2,2.8-0.3c-0.8-2.2-1.2-3.2-2.1-5.4
					C104.1,40,103.9,41.1,103.7,43.4z"/>
				<path class="st19" d="M135.3,33.4c-2.1,2.8-3.1,4.3-5,7.2c-0.9-0.6-1.9-0.9-3.1-1.1c-1.7-0.2-2.6,0.3-2.7,1.4
					c-0.1,0.5,0.1,1,0.5,1.4c0.4,0.4,1,0.6,1.9,0.7c1.1,0.1,2.1,0,3.1-0.4c0.7,3.6,1,5.3,1.4,8.9c-1,0.5-2,0.9-3.3,1.1
					c-1.2,0.2-2.3,0.3-3.3,0.2c-2.6-0.3-4.5-1.5-6-3.8c-1.5-2.3-2.3-5-2.3-8.2c0.1-3.4,1.1-6.2,3.2-8.3c2.2-2.1,5-3,8.2-2.6
					c1.4,0.2,2.8,0.6,4.2,1.2C133.4,31.7,134.5,32.5,135.3,33.4"/>
				<path class="st44" d="M135.3,33.4c-2.1,2.8-3.1,4.3-5,7.2c-0.9-0.6-1.9-0.9-3.1-1.1c-1.7-0.2-2.6,0.3-2.7,1.4
					c-0.1,0.5,0.1,1,0.5,1.4c0.4,0.4,1,0.6,1.9,0.7c1.1,0.1,2.1,0,3.1-0.4c0.7,3.6,1,5.3,1.4,8.9c-1,0.5-2,0.9-3.3,1.1
					c-1.2,0.2-2.3,0.3-3.3,0.2c-2.6-0.3-4.5-1.5-6-3.8c-1.5-2.3-2.3-5-2.3-8.2c0.1-3.4,1.1-6.2,3.2-8.3c2.2-2.1,5-3,8.2-2.6
					c1.4,0.2,2.8,0.6,4.2,1.2C133.4,31.7,134.5,32.5,135.3,33.4z"/>
				<path class="st19" d="M137.5,55c-2.6-0.8-3.9-1.1-6.6-1.6c3.5-7,7.4-13.8,11.6-20.4c4,1.1,8.1,2.4,12,4
					c-1,7.7-2.5,15.3-4.3,22.8c-2.4-1.2-3.7-1.7-6.2-2.7c0.3-1.5,0.4-2.3,0.6-3.9c-2-0.7-3-1.1-5-1.7C138.8,53,138.4,53.7,137.5,55
					 M142.6,47c1.1,0.3,1.6,0.5,2.7,0.9c0.3-2.3,0.4-3.4,0.6-5.7C144.5,44.1,143.9,45.1,142.6,47"/>
				<path class="st44" d="M137.5,55c-2.6-0.8-3.9-1.1-6.6-1.6c3.5-7,7.4-13.8,11.6-20.4c4,1.1,8.1,2.4,12,4
					c-1,7.7-2.5,15.3-4.3,22.8c-2.4-1.2-3.7-1.7-6.2-2.7c0.3-1.5,0.4-2.3,0.6-3.9c-2-0.7-3-1.1-5-1.7C138.8,53,138.4,53.7,137.5,55z
					 M142.6,47c1.1,0.3,1.6,0.5,2.7,0.9c0.3-2.3,0.4-3.4,0.6-5.7C144.5,44.1,143.9,45.1,142.6,47z"/>
				<path class="st19" d="M162.6,40.8c3.5,1.8,5.2,2.8,8.5,5c3,2,4.5,4.5,4.5,7.4c0,2.9-1.1,5.5-3.2,7.9c-1.3,1.5-2.9,2.7-4.6,3.6
					c-1.7,0.9-3.4,1.3-5.1,1.3c-1.7,0-3.2-0.5-4.8-1.6c-2.5-1.6-3.8-2.4-6.4-3.7C155.3,54,159,47.4,162.6,40.8 M165.4,52.4
					c-1.2,1.8-1.8,2.6-3,4.4c0.1,0,0.1,0.1,0.2,0.1c0.8,0.5,1.4,0.7,2,0.6c0.6-0.1,1.2-0.6,1.7-1.3c1-1.4,0.9-2.6-0.5-3.5
					C165.6,52.6,165.6,52.5,165.4,52.4"/>
				<path class="st44" d="M162.6,40.8c3.5,1.8,5.2,2.8,8.5,5c3,2,4.5,4.5,4.5,7.4c0,2.9-1.1,5.5-3.2,7.9c-1.3,1.5-2.9,2.7-4.6,3.6
					c-1.7,0.9-3.4,1.3-5.1,1.3c-1.7,0-3.2-0.5-4.8-1.6c-2.5-1.6-3.8-2.4-6.4-3.7C155.3,54,159,47.4,162.6,40.8z M165.4,52.4
					c-1.2,1.8-1.8,2.6-3,4.4c0.1,0,0.1,0.1,0.2,0.1c0.8,0.5,1.4,0.7,2,0.6c0.6-0.1,1.2-0.6,1.7-1.3c1-1.4,0.9-2.6-0.5-3.5
					C165.6,52.6,165.6,52.5,165.4,52.4z"/>
				<path class="st19" d="M179.9,77.1c-1.8,1.4-2.7,2.1-4.6,3.5c-2.5-3.4-5.6-6.8-8.7-9.6c5.2-5.6,10.4-11.1,15.6-16.7
					c4.2,3.8,8,8,11.4,12.5l-4.6,3.5c-1.8-2.4-2.8-3.6-4.7-5.8c-0.8,0.8-1.3,1.1-2.1,1.9c1.3,1.5,2,2.3,3.3,3.9
					c-1.8,1.4-2.7,2.1-4.5,3.6c-1.2-1.5-1.8-2.2-3-3.6c-0.8,0.7-1.3,1.1-2.1,1.9C177.4,74,178.3,75,179.9,77.1"/>
				<path class="st44" d="M179.9,77.1c-1.8,1.4-2.7,2.1-4.6,3.5c-2.5-3.4-5.6-6.8-8.7-9.6c5.2-5.6,10.4-11.1,15.6-16.7
					c4.2,3.8,8,8,11.4,12.5l-4.6,3.5c-1.8-2.4-2.8-3.6-4.7-5.8c-0.8,0.8-1.3,1.1-2.1,1.9c1.3,1.5,2,2.3,3.3,3.9
					c-1.8,1.4-2.7,2.1-4.5,3.6c-1.2-1.5-1.8-2.2-3-3.6c-0.8,0.7-1.3,1.1-2.1,1.9C177.4,74,178.3,75,179.9,77.1z"/>
				<path class="st19" d="M176.5,82.3c6.2-4.4,12.4-8.8,18.6-13.3c2,2.9,3,4.5,4.8,7.7c-0.9,2.3-1.4,3.4-2.4,5.7
					c2.3,0.4,3.5,0.7,5.9,1.4c1.5,3.4,2.2,5.2,3.4,9c-7.1,2.6-14.2,5.2-21.3,7.8c-0.9-2.9-1.5-4.4-2.7-7.1c4.1-2,6.1-3,10.2-5
					c-2.1-0.4-3.2-0.6-5.3-0.9c1-1.9,1.5-2.9,2.4-4.9c-3.9,2.3-5.9,3.4-9.9,5.7C178.9,85.9,178.1,84.6,176.5,82.3"/>
				<path class="st44" d="M176.5,82.3c6.2-4.4,12.4-8.8,18.6-13.3c2,2.9,3,4.5,4.8,7.7c-0.9,2.3-1.4,3.4-2.4,5.7
					c2.3,0.4,3.5,0.7,5.9,1.4c1.5,3.4,2.2,5.2,3.4,9c-7.1,2.6-14.2,5.2-21.3,7.8c-0.9-2.9-1.5-4.4-2.7-7.1c4.1-2,6.1-3,10.2-5
					c-2.1-0.4-3.2-0.6-5.3-0.9c1-1.9,1.5-2.9,2.4-4.9c-3.9,2.3-5.9,3.4-9.9,5.7C178.9,85.9,178.1,84.6,176.5,82.3z"/>
				<path class="st19" d="M188.9,117.1c-0.3-3.4-0.6-5.1-1.2-8.3c3.8-0.9,5.7-1.4,9.6-2.3c3.7-3.6,7.1-7.5,10.2-11.6
					c1.2,3.9,1.7,6,2.5,10.2c-1.7,1.9-2.6,2.8-4.4,4.6c2.2,1,3.3,1.6,5.5,2.9c0.5,4.5,0.7,6.7,0.7,11.5c-4.1-3.1-8.5-5.9-13.1-8.2
					C194.7,116.4,192.7,116.6,188.9,117.1"/>
				<path class="st44" d="M188.9,117.1c-0.3-3.4-0.6-5.1-1.2-8.3c3.8-0.9,5.7-1.4,9.6-2.3c3.7-3.6,7.1-7.5,10.2-11.6
					c1.2,3.9,1.7,6,2.5,10.2c-1.7,1.9-2.6,2.8-4.4,4.6c2.2,1,3.3,1.6,5.5,2.9c0.5,4.5,0.7,6.7,0.7,11.5c-4.1-3.1-8.5-5.9-13.1-8.2
					C194.7,116.4,192.7,116.6,188.9,117.1z"/>
			</g>
		</g>
	</g>
</g>
</svg>
